<svg width="386" height="386" viewBox="0 0 386 386" fill="none" xmlns="http://www.w3.org/2000/svg">
<rect width="386" height="386" fill="url(#paint0_linear_2_2)"/>
<path d="M155.214 231.171H115.153C109.984 231.171 106.159 228.862 103.677 224.242C101.196 219.622 101.468 215.158 104.492 210.848L201.09 72.131C203.244 69.1201 206.044 67.0254 209.49 65.8468C212.936 64.6683 216.49 64.7199 220.151 66.0017C223.813 67.2835 226.505 69.5416 228.228 72.7762C229.951 76.0108 230.597 79.4518 230.166 83.0993L219.828 166.652H269.904C275.504 166.652 279.437 169.125 281.703 174.072C283.968 179.018 283.266 183.642 279.596 187.943L173.306 315.047C170.937 317.842 168.029 319.671 164.583 320.531C161.137 321.391 157.798 321.068 154.568 319.563C151.337 318.058 148.808 315.748 146.982 312.634C145.155 309.519 144.453 306.13 144.875 302.465L155.214 231.171Z" fill="white" fill-opacity="0.93"/>
<defs>
<linearGradient id="paint0_linear_2_2" x1="70.1827" y1="329.066" x2="368.688" y2="103.136" gradientUnits="userSpaceOnUse">
<stop stop-color="#974EFF"/>
<stop offset="1" stop-color="#645FFF"/>
</linearGradient>
</defs>
</svg>
