<svg width="1024" height="1024" viewBox="0 0 1024 1024" fill="none" xmlns="http://www.w3.org/2000/svg">
<rect width="1024" height="1024" fill="white"/>
<path d="M124 589V435H146V569.86H229.38V589H124Z" fill="#311452"/>
<path d="M251.545 589V472.4H272.665V589H251.545Z" fill="#311452"/>
<path d="M312.99 589V472.4H333.23V503.86L329.93 495.5C333.744 487.873 339.61 481.933 347.53 477.68C355.45 473.427 364.69 471.3 375.25 471.3C384.784 471.3 393.144 473.133 400.33 476.8C407.664 480.467 413.384 486.04 417.49 493.52C421.597 501 423.65 510.46 423.65 521.9V589H402.53V524.32C402.53 513.027 399.744 504.52 394.17 498.8C388.744 493.08 381.044 490.22 371.07 490.22C363.59 490.22 357.064 491.687 351.49 494.62C345.917 497.553 341.59 501.88 338.51 507.6C335.577 513.32 334.11 520.433 334.11 528.94V589H312.99Z" fill="#311452"/>
<path d="M479.896 560.84L480.336 533.78L547.436 472.4H572.956L521.476 523L510.036 532.68L479.896 560.84ZM462.736 589V425.76H483.856V589H462.736ZM551.836 589L506.076 532.24L519.716 515.3L577.796 589H551.836Z" fill="#311452"/>
<path d="M700.9 429H744.338V531.5C744.338 543.687 741.421 554.234 735.588 563.141C729.806 571.995 721.733 578.844 711.369 583.687C701.004 588.479 688.973 590.875 675.275 590.875C661.473 590.875 649.39 588.479 639.025 583.687C628.66 578.844 620.588 571.995 614.806 563.141C609.077 554.234 606.213 543.687 606.213 531.5V429H649.65V527.75C649.65 532.698 650.744 537.125 652.931 541.031C655.119 544.885 658.14 547.906 661.994 550.094C665.9 552.281 670.327 553.375 675.275 553.375C680.275 553.375 684.702 552.281 688.556 550.094C692.41 547.906 695.431 544.885 697.619 541.031C699.806 537.125 700.9 532.698 700.9 527.75V429ZM764.982 589V429H834.045C845.92 429 856.31 431.344 865.216 436.031C874.123 440.719 881.05 447.307 885.998 455.797C890.946 464.286 893.42 474.208 893.42 485.562C893.42 497.021 890.867 506.943 885.763 515.328C880.711 523.714 873.602 530.172 864.435 534.703C855.321 539.234 844.67 541.5 832.482 541.5H791.232V507.75H823.732C828.836 507.75 833.185 506.865 836.779 505.094C840.425 503.271 843.211 500.693 845.138 497.359C847.117 494.026 848.107 490.094 848.107 485.562C848.107 480.979 847.117 477.073 845.138 473.844C843.211 470.562 840.425 468.062 836.779 466.344C833.185 464.573 828.836 463.687 823.732 463.687H808.42V589H764.982Z" fill="url(#paint0_linear_1_2)"/>
<path d="M255.65 411.25H240.925C239.025 411.25 237.619 410.4 236.707 408.699C235.795 406.999 235.895 405.355 237.006 403.769L272.512 352.706C273.304 351.598 274.333 350.827 275.6 350.393C276.867 349.959 278.173 349.978 279.519 350.45C280.865 350.922 281.854 351.753 282.487 352.944C283.121 354.134 283.358 355.401 283.2 356.744L279.4 387.5H297.806C299.865 387.5 301.31 388.41 302.143 390.231C302.976 392.052 302.718 393.754 301.369 395.337L262.3 442.125C261.429 443.154 260.36 443.827 259.094 444.144C257.827 444.46 256.6 444.342 255.412 443.787C254.225 443.233 253.296 442.383 252.624 441.237C251.953 440.09 251.695 438.843 251.85 437.494L255.65 411.25Z" fill="#645FFF" fill-opacity="0.93"/>
<defs>
<linearGradient id="paint0_linear_1_2" x1="651.173" y1="602.766" x2="862.683" y2="419.811" gradientUnits="userSpaceOnUse">
<stop stop-color="#974EFF"/>
<stop offset="1" stop-color="#645FFF"/>
</linearGradient>
</defs>
</svg>
